#!OML:ASF F:\VICON\USERDATA\INSTALL\rory3\rory3.ASF
:FULLY-SPECIFIED
:DEGREES
2332
root 1.56599 9.82943 -5.95601 -205.253 170.235 -178.918
lowerback 31.1365 0.230542 -0.0708871
upperback 13.3371 0.384633 -0.776843
thorax -1.93045 0.286513 -0.940589
lowerneck -12.3706 -13.5317 -17.3402
upperneck 5.28078 -16.8632 14.8176
head 6.35857 -7.84896 5.56492
rclavicle -9.83984e-015 8.84592e-015
rhumerus 45.8032 9.61891 -51.2679
rradius 130.46
rwrist -36.893
rhand -3.2049 18.0517
rfingers 7.12502
rthumb 22.5173 -10.6553
lclavicle -9.83984e-015 8.84592e-015
lhumerus -27.6474 -31.8811 84.6043
lradius 91.1686
lwrist -11.4757
lhand -36.0235 7.42536
lfingers 7.12502
lthumb -9.13249 37.2076
rfemur -121.859 2.55122 80.0056
rtibia 113.601
rfoot -25.0119 7.35065
rtoes -37.455
lfemur -67.2119 5.94239 -28.3343
ltibia 89.1541
lfoot 5.18696 -14.8874
ltoes -2.1207
2333
root 1.56548 9.83145 -5.95923 -205.257 170.251 -178.912
lowerback 31.1523 0.207725 -0.0747246
upperback 13.302 0.353329 -0.77633
thorax -1.97809 0.270054 -0.928347
lowerneck -12.0954 -13.5549 -17.5622
upperneck 5.30592 -16.9118 14.8595
head 6.35239 -7.887 5.61579
rclavicle 8.34896e-015 -1.95803e-014
rhumerus 45.8166 9.37825 -51.2716
rradius 130.507
rwrist -37.2294
rhand -2.29431 18.2145
rfingers 7.12502
rthumb 23.3911 -10.384
lclavicle 8.34896e-015 -1.95803e-014
lhumerus -27.8119 -31.7948 84.6609
lradius 91.2881
lwrist -11.4776
lhand -35.9816 7.31451
lfingers 7.12502
lthumb -9.09203 37.0985
rfemur -121.858 2.54369 79.9407
rtibia 113.614
rfoot -24.9715 8.32979
rtoes -40.3512
lfemur -67.1858 5.86463 -28.3111
ltibia 89.0654
lfoot 5.18754 -14.8665
ltoes -2.52402
2334
root 1.56233 9.83257 -5.96588 -205.268 170.17 -178.762
lowerback 31.2084 0.203777 -0.206258
upperback 13.2587 0.306934 -0.853221
thorax -2.0529 0.244166 -0.923923
lowerneck -11.7684 -13.5452 -17.7758
upperneck 5.36484 -16.9445 15.003
head 6.35637 -7.91416 5.70305
rclavicle -1.12313e-014 -2.18663e-015
rhumerus 45.6866 9.21098 -51.2929
rradius 130.493
rwrist -37.4315
rhand -1.42482 18.4305
rfingers 7.12502
rthumb 24.225 -10.0593
lclavicle -1.12313e-014 -2.18663e-015
lhumerus -27.987 -31.7301 84.6722
lradius 91.3714
lwrist -11.4865
lhand -35.8323 7.41464
lfingers 7.12502
lthumb -8.94795 37.2049
rfemur -121.929 2.54592 79.7694
rtibia 113.656
rfoot -24.5735 10.1606
rtoes -44.5516
lfemur -67.0972 5.72731 -28.4574
ltibia 88.9665
lfoot 5.18787 -14.7899
ltoes -2.88871
2335
root 1.55819 9.83615 -5.97501 -205.311 170.027 -178.384
lowerback 31.1756 0.278054 -0.586877
upperback 13.376 0.293534 -0.964485
thorax -1.90469 0.227601 -0.823101
lowerneck -11.7611 -13.5856 -17.8856
upperneck 5.40052 -16.9982 15.0874
head 6.39331 -7.93792 5.73619
rclavicle -2.23633e-015 5.66536e-015
rhumerus 45.7416 8.88771 -51.2838
rradius 130.486
rwrist -37.5204
rhand -0.493973 18.5755
rfingers 7.12502
rthumb 25.1171 -9.7924
lclavicle -2.23633e-015 5.66536e-015
lhumerus -27.9022 -31.7203 84.5819
lradius 91.4689
lwrist -11.4614
lhand -35.8383 7.65784
lfingers 7.12502
lthumb -8.95381 37.4478
rfemur -122.009 2.5019 79.3833
rtibia 113.713
rfoot -24.0406 12.1589
rtoes -48.1766
lfemur -66.821 5.6058 -28.8418
ltibia 88.7983
lfoot 5.18639 -14.6076
ltoes -3.06876
2336
root 1.55533 9.8375 -5.9742 -205.464 170.042 -178.306
lowerback 31.19 0.288175 -0.682682
upperback 13.501 0.281293 -0.9876
thorax -1.76776 0.219108 -0.789302
lowerneck -11.73 -13.6353 -18.0656
upperneck 5.44751 -17.0543 15.141
head 6.43294 -7.9668 5.77011
rclavicle -1.45113e-014 1.42131e-014
rhumerus 45.8631 8.58944 -51.2197
rradius 130.457
rwrist -37.6039
rhand 0.425084 18.9023
rfingers 7.12502
rthumb 25.9975 -9.33933
lclavicle -1.45113e-014 1.42131e-014
lhumerus -27.7751 -31.6478 84.4611
lradius 91.4922
lwrist -11.4232
lhand -35.9757 7.61313
lfingers 7.12502
lthumb -9.08636 37.3974
rfemur -121.993 2.42566 79.2813
rtibia 113.783
rfoot -23.4171 13.8571
rtoes -51.1594
lfemur -66.5888 5.56819 -28.867
ltibia 88.7365
lfoot 5.12728 -14.5197
ltoes -3.84219
2337
root 1.55262 9.83841 -5.97861 -205.51 170.063 -178.338
lowerback 31.2399 0.262846 -0.646925
upperback 13.4861 0.257307 -0.996477
thorax -1.80671 0.20878 -0.812641
lowerneck -11.6647 -13.6776 -18.1168
upperneck 5.54304 -17.1057 14.9995
head 6.44971 -8.00235 5.72536
rclavicle -1.39149e-014 -7.65321e-015
rhumerus 45.8398 8.32288 -51.1405
rradius 130.376
rwrist -37.7466
rhand 1.51945 19.5124
rfingers 7.12502
rthumb 27.0449 -8.57105
lclavicle -1.39149e-014 -7.65321e-015
lhumerus -27.8466 -31.5663 84.4276
lradius 91.6113
lwrist -11.4182
lhand -35.8693 7.37971
lfingers 7.12502
lthumb -8.98364 37.1684
rfemur -122.035 2.43329 79.2098
rtibia 113.817
rfoot -23.0509 14.9181
rtoes -52.8422
lfemur -66.6241 5.46796 -28.7575
ltibia 88.7853
lfoot 5.13052 -14.4211
ltoes -4.08124
2338
root 1.54837 9.83863 -5.98232 -205.565 170.033 -178.299
lowerback 31.3291 0.254387 -0.661511
upperback 13.447 0.238214 -1.04653
thorax -1.89035 0.20055 -0.854556
lowerneck -11.3797 -13.7048 -18.1934
upperneck 5.56165 -17.1786 14.9714
head 6.4244 -8.05368 5.73004
rclavicle 5.71506e-015 -1.22253e-014
rhumerus 45.6937 8.04719 -51.2143
rradius 130.332
rwrist -37.8922
rhand 3.13532 20.0428
rfingers 7.12502
rthumb 28.5899 -7.79073
lclavicle 5.71506e-015 -1.22253e-014
lhumerus -27.8891 -31.6082 84.3493
lradius 91.7232
lwrist -11.4292
lhand -35.9495 7.26353
lfingers 7.12502
lthumb -9.06108 37.0489
rfemur -122.095 2.46476 78.9951
rtibia 113.916
rfoot -23.2007 15.0675
rtoes -53.2542
lfemur -66.4605 5.28774 -28.7438
ltibia 88.6558
lfoot 5.13487 -14.2864
ltoes -4.17172
2339
root 1.54642 9.83725 -5.98457 -205.611 170.007 -178.185
lowerback 31.2878 0.244847 -0.724936
upperback 13.4868 0.204923 -1.14175
thorax -1.8264 0.185166 -0.91249
lowerneck -11.2189 -13.7135 -18.1815
upperneck 5.612 -17.2164 14.9019
head 6.41172 -8.08258 5.70788
rclavicle 1.59525e-014 -2.77305e-014
rhumerus 45.6873 7.63302 -51.299
rradius 130.273
rwrist -38.2205
rhand 5.04609 20.2189
rfingers 7.12502
rthumb 30.4139 -7.29264
lclavicle 1.59525e-014 -2.77305e-014
lhumerus -27.8231 -31.6216 84.2013
lradius 91.7844
lwrist -11.4382
lhand -36.0201 7.17627
lfingers 7.12502
lthumb -9.12923 36.9587
rfemur -122.17 2.45762 78.7682
rtibia 113.894
rfoot -22.3954 16.8544
rtoes -55.2767
lfemur -66.3476 5.10328 -28.772
ltibia 88.5953
lfoot 5.27032 -14.0144
ltoes -3.75366
2340
root 1.54445 9.83552 -5.985 -205.638 170.006 -178.16
lowerback 31.1554 0.185263 -0.637575
upperback 13.5605 0.150816 -1.25927
thorax -1.68404 0.166844 -1.07441
lowerneck -11.2323 -13.7509 -18.1652
upperneck 5.78499 -17.2778 14.8414
head 6.47064 -8.11337 5.67234
rclavicle 1.44616e-014 2.08724e-014
rhumerus 45.7185 7.1649 -51.3505
rradius 130.164
rwrist -38.5489
rhand 6.89848 20.3872
rfingers 7.12502
rthumb 32.1791 -6.78265
lclavicle 1.44616e-014 2.08724e-014
lhumerus -27.71 -31.7613 83.9258
lradius 91.9322
lwrist -11.1578
lhand -36.0829 7.19919
lfingers 7.12502
lthumb -9.18975 36.9789
rfemur -122.252 2.54071 78.5891
rtibia 113.931
rfoot -22.0252 17.6559
rtoes -56.1821
lfemur -66.3094 4.95592 -28.7326
ltibia 88.5648
lfoot 5.38169 -13.84
ltoes -3.40169
2341
root 1.54131 9.83412 -5.98637 -205.736 170.008 -178.119
lowerback 31.0912 0.151 -0.592156
upperback 13.6684 0.118148 -1.36687
thorax -1.53216 0.15773 -1.20847
lowerneck -11.311 -13.7895 -17.9992
upperneck 5.88022 -17.3286 14.6603
head 6.48791 -8.13972 5.57675
rclavicle -2.34069e-014 2.92213e-014
rhumerus 45.8464 6.6725 -51.4408
rradius 129.938
rwrist -38.7348
rhand 8.68271 20.5939
rfingers 7.12502
rthumb 33.8759 -6.21735
lclavicle -2.34069e-014 2.92213e-014
lhumerus -27.4941 -31.891 83.6605
lradius 92.007
lwrist -11.0043
lhand -36.0683 7.3099
lfingers 7.12502
lthumb -9.17573 37.0903
rfemur -122.31 2.59478 78.3396
rtibia 114.041
rfoot -22.0925 17.8504
rtoes -56.4244
lfemur -66.1815 4.87216 -28.7112
ltibia 88.5565
lfoot 5.24012 -13.8435
ltoes -4.04325
2342
root 1.53804 9.83484 -5.99016 -205.838 170.044 -178.174
lowerback 30.9501 0.0744393 -0.437736
upperback 13.7983 0.0637656 -1.45242
thorax -1.32203 0.142035 -1.37346
lowerneck -11.0816 -13.7673 -18.0862
upperneck 5.69159 -17.3217 14.786
head 6.41079 -8.14378 5.64596
rclavicle 1.15792e-014 -4.57205e-015
rhumerus 46.0239 6.13241 -51.5407
rradius 129.681
rwrist -38.9709
rhand 10.7471 20.882
rfingers 7.12502
rthumb 35.8346 -5.475
lclavicle 1.15792e-014 -4.57205e-015
lhumerus -27.279 -31.9454 83.3144
lradius 92.2107
lwrist -10.8181
lhand -35.8692 7.35258
lfingers 7.12502
lthumb -8.98363 37.1413
rfemur -122.325 2.60452 78.1958
rtibia 114.095
rfoot -21.7766 18.3505
rtoes -56.9931
lfemur -66.082 4.79309 -28.5873
ltibia 88.5655
lfoot 5.1447 -13.797
ltoes -4.66484
2343
root 1.53538 9.83583 -5.99395 -205.9 170.122 -178.134
lowerback 30.8082 0.0234932 -0.321384
upperback 13.8752 0.0267182 -1.58346
thorax -1.17186 0.134726 -1.57244
lowerneck -10.8903 -13.7155 -18.1537
upperneck 5.68562 -17.2767 14.8131
head 6.37925 -8.13128 5.68271
rclavicle -2.54444e-014 1.78906e-014
rhumerus 46.1199 5.59446 -51.5643
rradius 129.377
rwrist -39.2184
rhand 12.3674 20.9933
rfingers 7.12502
rthumb 37.3681 -4.97513
lclavicle -2.54444e-014 1.78906e-014
lhumerus -27.197 -32.0643 83.0326
lradius 92.3732
lwrist -10.4796
lhand -35.9291 7.58699
lfingers 7.12502
lthumb -9.04139 37.3732
rfemur -122.325 2.70297 77.9676
rtibia 114.117
rfoot -21.1447 18.8769
rtoes -57.7444
lfemur -65.9988 4.76287 -28.5313
ltibia 88.5848
lfoot 5.08504 -13.6559
ltoes -4.77898
2344
root 1.53244 9.83684 -6.00094 -206.009 170.278 -178.048
lowerback 30.6503 0.0235769 -0.22944
upperback 13.9827 0.048142 -1.7129
thorax -0.97774 0.156097 -1.7731
lowerneck -10.6789 -13.7232 -18.231
upperneck 5.6552 -17.3077 14.8035
head 6.34569 -8.15843 5.69762
rclavicle 1.32192e-014 1.19271e-015
rhumerus 46.2402 5.03124 -51.3941
rradius 128.95
rwrist -39.3976
rhand 13.4795 19.85
rfingers 7.12502
rthumb 38.4186 -5.83408
lclavicle 1.32192e-014 1.19271e-015
lhumerus -26.985 -32.196 82.7839
lradius 92.3321
lwrist -10.269
lhand -36.1784 7.46533
lfingers 7.12502
lthumb -9.2819 37.241
rfemur -122.242 2.81015 77.6792
rtibia 114.161
rfoot -20.7646 19.0874
rtoes -58.3582
lfemur -65.8152 4.73158 -28.4279
ltibia 88.5596
lfoot 5.01907 -13.4886
ltoes -4.6659
2345
root 1.52981 9.84229 -6.01054 -206.03 170.558 -178.151
lowerback 30.3459 0.0190006 0.00047522
upperback 14.025 0.102762 -1.72921
thorax -0.793422 0.194764 -1.93639
lowerneck -10.4036 -13.7014 -18.3523
upperneck 5.66632 -17.2907 14.6718
head 6.29763 -8.17198 5.69115
rclavicle -1.53064e-014 3.79679e-014
rhumerus 46.3449 4.49293 -51.1643
rradius 128.464
rwrist -39.6446
rhand 14.6583 18.0919
rfingers 7.12502
rthumb 39.5299 -7.27424
lclavicle -1.53064e-014 3.79679e-014
lhumerus -26.9214 -32.2303 82.6634
lradius 92.3823
lwrist -10.1937
lhand -36.0751 7.59764
lfingers 7.12502
lthumb -9.18231 37.3777
rfemur -122.037 2.97308 77.592
rtibia 114.154
rfoot -20.6121 19.0812
rtoes -58.9628
lfemur -65.8122 4.8165 -28.1459
ltibia 88.5605
lfoot 4.99877 -13.3811
ltoes -4.925
2346
root 1.52349 9.83991 -6.0134 -206.151 170.577 -178.227
lowerback 30.3946 -0.00247033 0.0264349
upperback 13.9635 0.0796737 -1.7323
thorax -0.886127 0.183147 -1.94852
lowerneck -10.0036 -13.6363 -18.4037
upperneck 5.76917 -17.2532 14.5104
head 6.24588 -8.18081 5.67484
rclavicle 9.74045e-015 3.27995e-014
rhumerus 46.3242 4.07156 -50.955
rradius 127.931
rwrist -39.8399
rhand 16.1562 18.082
rfingers 7.12502
rthumb 40.9388 -6.85378
lclavicle 9.74045e-015 3.27995e-014
lhumerus -27.0434 -32.2811 82.6454
lradius 92.4066
lwrist -10.1329
lhand -35.7258 7.72347
lfingers 7.12502
lthumb -8.84516 37.5181
rfemur -121.967 3.02689 77.3436
rtibia 114.162
rfoot -19.8936 19.2438
rtoes -59.6952
lfemur -65.7092 4.69823 -27.9583
ltibia 88.5552
lfoot 5.04738 -13.2806
ltoes -4.79123
